PathFileType	4	(X/Y/Z)	D:\TRACE\spot_10-12-23\spot_arm_motion_2_4-platform.trc
DataRate	CameraRate	NumFrames	NumMarkers	Units	OrigDataRate	OrigDataStartFrame	OrigNumFrames
100.00	100.00	      60	5	mm	100.00	2626	      7000
Frame#	Time	Left_Front			Right_Front			Left_Aft			Right_Aft			Post			
		X1	Y1	Z1	X2	Y2	Z2	X3	Y3	Z3	X4	Y4	Z4	X5	Y5	Z5	

2626	26.250	-747.99200	14.22105	-639.65466	824.88287	19.09019	-632.56769	-664.61243	-0.57031	498.36655	752.46722	3.71673	584.28406	34.81023	755.83276	-948.93103	
2627	26.260	-746.78717	15.66696	-639.27606	825.55096	20.59642	-632.43176	-663.85779	-1.40639	498.57745	753.50800	2.42134	584.70056	35.79909	758.10901	-946.93140	
2628	26.270	-745.92126	17.18040	-638.85809	826.32605	22.27436	-632.16339	-662.78528	-2.50364	498.86804	754.40680	1.03343	584.95868	36.86335	760.42261	-944.57269	
2629	26.280	-745.09387	18.91867	-638.62238	827.64154	23.71833	-631.60297	-661.89429	-3.59149	499.30014	755.18518	-0.21381	585.23181	37.70095	762.70667	-942.26398	
2630	26.290	-744.30157	20.48727	-638.09918	828.44873	25.23201	-631.11285	-660.99231	-4.49009	499.38123	756.37122	-1.35588	585.73077	38.47770	764.80682	-940.22888	
2631	26.300	-743.29779	22.07406	-637.59406	829.26294	26.87063	-630.79926	-659.95349	-5.74323	499.87289	757.12018	-2.72282	586.07672	39.21547	767.19446	-938.16241	
2632	26.310	-742.45081	23.59522	-637.14423	830.35413	28.38709	-630.39880	-659.29529	-6.75230	500.12091	757.81604	-4.15895	586.46814	40.12857	769.54651	-936.06647	
2633	26.320	-741.56689	24.87316	-636.90015	830.88959	29.73904	-630.04297	-658.56232	-7.82607	500.49323	758.93237	-5.20361	586.76831	41.31641	771.58728	-934.00012	
2634	26.330	-740.81427	26.42437	-636.57831	831.85858	31.38870	-629.46313	-657.50281	-9.01655	500.80954	759.69373	-6.34496	587.09979	42.18462	773.89337	-931.94489	
2635	26.340	-740.00989	28.02280	-636.11407	832.66998	32.78756	-629.13300	-656.81482	-9.87154	500.97922	760.40228	-7.71509	587.45087	42.60616	776.07281	-930.09454	
2636	26.350	-739.21667	29.44367	-635.56946	833.53180	34.34696	-628.79883	-655.90277	-11.03715	501.87137	761.15509	-9.01381	587.78821	43.56544	778.16913	-927.94153	
2637	26.360	-738.51843	30.95881	-635.16760	834.25739	35.86256	-628.51147	-655.10944	-12.16130	501.88669	762.00116	-10.16140	587.87305	44.37666	780.22925	-925.80865	
2638	26.370	-737.93707	32.42171	-634.86243	834.85638	37.04226	-627.85480	-654.43188	-13.12865	502.36240	762.64606	-11.28650	588.26379	44.93641	782.27295	-923.76782	
2639	26.380	-736.99249	33.97049	-634.50623	835.70978	38.81620	-627.50702	-653.78656	-13.98206	502.47943	763.58923	-12.59244	588.62146	45.43534	784.32703	-921.74908	
2640	26.390	-736.25580	35.32727	-633.89355	836.33569	40.09093	-627.18158	-653.04327	-15.01147	502.89822	764.26031	-13.67484	588.96497	46.14551	786.38702	-919.69708	
2641	26.400	-735.47168	36.56956	-633.42755	836.99866	41.41972	-626.73718	-652.40881	-16.05132	503.05045	764.86383	-14.84485	589.14111	47.18251	788.38916	-917.63116	
2642	26.410	-734.98053	38.05554	-633.13177	837.39105	43.00783	-626.47034	-651.83838	-17.10068	503.33847	765.39752	-15.84880	589.47791	47.54339	790.44580	-915.60089	
2643	26.420	-734.55389	39.56312	-632.78021	838.11829	44.25356	-626.01062	-651.33789	-17.80276	503.61893	766.11206	-17.24483	589.85120	48.16786	792.50244	-913.53503	
2644	26.430	-734.11780	40.96910	-632.31921	838.62622	45.51832	-625.48181	-650.53644	-18.95101	503.89099	766.57117	-18.22296	589.88867	48.86911	794.40234	-911.51019	
2645	26.440	-733.42322	42.20027	-631.96680	839.24573	47.11142	-625.09564	-650.14429	-19.79729	504.05194	767.17554	-19.27976	590.23627	49.38881	796.18909	-909.56525	
2646	26.450	-732.86273	43.41759	-631.52716	839.75116	48.24927	-624.76740	-649.64471	-20.82632	504.33746	767.72339	-20.44365	590.56482	49.73295	797.98505	-907.66656	
2647	26.460	-732.47913	44.84246	-631.20892	840.22784	49.35358	-624.44806	-649.11963	-21.71884	504.65103	768.07922	-21.43524	590.80334	50.25773	799.85980	-905.76697	
2648	26.470	-732.04315	45.91021	-630.77142	840.47412	50.85753	-624.11316	-648.84167	-22.42235	504.88501	768.61426	-22.63704	590.99664	50.60767	801.56030	-904.15186	
2649	26.480	-731.66162	47.37890	-630.49994	840.73108	51.79298	-623.74011	-648.29736	-23.70336	505.25800	768.84393	-23.54101	591.15173	51.01819	803.41461	-902.27802	
2650	26.490	-731.52368	48.51590	-630.07440	841.28772	53.27760	-623.15588	-647.95197	-24.48827	505.67062	769.25604	-24.54783	591.45532	51.21185	805.28601	-900.64368	
2651	26.500	-731.19952	49.53196	-629.63129	841.47180	54.24845	-622.96692	-647.75067	-25.11638	505.78525	769.43195	-25.49700	591.59723	51.45146	806.80304	-899.04321	
2652	26.510	-730.92792	50.78934	-629.36066	841.88770	55.58750	-622.56335	-647.23016	-25.97015	506.10394	769.70593	-26.53300	591.82288	51.79898	808.26135	-897.36609	
2653	26.520	-730.78180	52.06906	-629.15814	842.11932	56.44230	-622.19232	-647.35480	-26.64386	506.08243	769.77380	-27.40397	591.99927	52.07191	809.92029	-895.67120	
2654	26.530	-730.55865	52.87460	-628.84882	842.07086	57.56746	-621.90936	-647.20404	-27.55111	506.36389	769.99127	-28.35336	592.32117	51.98238	811.39056	-894.13147	
2655	26.540	-730.62885	54.21017	-628.52173	842.30176	58.78109	-621.78754	-647.11426	-28.15132	506.53143	770.26501	-29.21860	592.59760	52.31713	812.84003	-892.55243	
2656	26.550	-730.38013	54.82410	-628.16034	842.25092	59.63221	-621.27844	-647.11761	-28.80453	506.75034	770.30109	-29.95695	592.73541	52.37034	814.20374	-891.19312	
2657	26.560	-730.56384	55.99526	-627.77478	842.19580	60.50531	-621.03680	-647.08258	-29.56862	506.85538	770.28705	-30.79090	592.89539	52.21061	815.59894	-889.76001	
2658	26.570	-730.38513	56.98797	-627.56158	842.17023	61.58057	-620.74768	-647.12866	-30.27983	506.97882	770.18030	-31.67212	592.96454	52.05835	816.98529	-888.25940	
2659	26.580	-730.52649	57.85472	-627.15881	842.31378	62.57479	-620.50427	-647.15442	-30.88732	507.19083	770.47876	-32.49599	593.26538	52.08469	818.25909	-886.82886	
2660	26.590	-730.45972	58.63204	-626.93622	842.17780	63.28951	-620.18451	-647.07593	-31.60624	507.47110	770.38477	-33.10440	593.30695	52.26647	819.43109	-885.56293	
2661	26.600	-730.45941	59.70104	-626.62201	842.04034	64.13732	-619.88098	-646.97913	-32.23590	507.65781	770.25122	-33.80750	593.55945	52.06467	820.74146	-884.37085	
2662	26.610	-730.62219	60.47358	-626.48938	842.09668	64.96012	-619.50067	-647.25696	-32.72619	507.72440	770.09998	-34.87775	593.66504	51.86533	821.85547	-883.12476	
2663	26.620	-730.84229	61.14006	-626.12238	841.61346	65.91917	-619.21387	-647.59784	-33.32463	507.85052	770.07721	-35.34324	593.82166	52.07144	822.98425	-881.93176	
2664	26.630	-731.34698	62.08364	-625.74286	841.27570	66.72042	-618.98779	-647.81934	-33.96888	507.99844	769.53485	-36.06710	593.96753	51.55544	824.08459	-880.85168	
2665	26.640	-731.61426	62.77121	-625.47723	841.00775	67.31739	-618.78815	-648.04846	-34.55720	508.04785	769.02600	-36.56335	594.05750	50.89840	825.15845	-879.74292	
2666	26.650	-731.82452	63.44707	-625.17627	840.72406	67.95712	-618.52240	-648.36188	-35.12341	508.22095	768.45911	-37.21854	594.08539	50.78443	826.19659	-878.49902	
2667	26.660	-732.21600	64.32281	-625.12024	840.29779	68.58897	-618.35413	-648.49689	-35.63253	508.73166	768.26660	-37.60750	594.30963	50.43401	827.03558	-877.32648	
2668	26.670	-732.44476	64.66528	-625.03333	840.11603	69.26720	-618.09113	-648.87817	-35.91233	508.84299	767.94336	-38.10083	594.42004	49.98964	827.72980	-876.39264	
2669	26.680	-732.71106	65.20786	-624.80585	839.83655	69.87796	-617.87939	-649.45380	-36.43468	508.91379	767.69647	-38.61652	594.51526	49.54645	828.43060	-875.56744	
2670	26.690	-733.11469	65.59367	-624.44318	839.59265	70.25440	-617.80457	-649.84216	-36.86442	508.97794	767.35254	-39.18575	594.67261	49.20965	829.21692	-874.71478	
2671	26.700	-733.79608	66.19659	-624.18549	838.95850	70.84698	-617.65100	-650.34802	-37.01310	509.00790	767.02985	-39.70457	594.71246	48.91716	829.92596	-873.99017	
2672	26.710	-734.12378	66.49815	-624.11725	838.33246	71.30477	-617.59473	-650.87170	-37.18563	508.83606	766.65063	-40.04304	594.80981	48.52815	830.46118	-873.49030	
2673	26.720	-734.57196	67.19511	-624.08777	837.94525	71.57240	-617.40271	-651.30115	-37.59092	509.22180	766.22906	-40.46102	594.95325	47.93764	831.16394	-873.09094	
2674	26.730	-735.04877	67.46214	-623.83136	837.35748	72.04224	-617.24091	-651.74884	-37.87748	509.31738	765.62701	-40.79836	594.88123	47.39870	831.91693	-872.50671	
2675	26.740	-735.66577	68.11739	-623.80768	836.90466	72.43900	-617.06708	-652.03809	-38.22604	509.34534	764.99762	-41.09018	594.90802	46.98853	832.47650	-871.97144	
2676	26.750	-736.11292	68.38509	-623.74481	836.54498	72.79362	-616.88177	-652.69513	-38.59716	509.41336	764.52271	-41.32774	594.99854	46.46745	833.00922	-871.67523	
2677	26.760	-736.63275	68.66198	-623.67896	836.06506	73.25137	-616.74164	-653.21899	-38.74102	509.32419	764.00873	-41.59283	595.07471	52.72001	773.81714	-883.84143	
2678	26.770	-737.23706	69.01773	-623.51593	835.65747	73.48998	-616.65948	-653.63135	-38.82753	509.35800	763.54919	-41.87885	595.15906	54.51765	753.79333	-887.47906	
2679	26.780	-737.63434	69.10162	-623.19757	834.93427	73.58685	-616.59680	-654.23163	-39.02085	509.35583	763.13806	-42.22984	595.19806	44.93630	833.89954	-869.87073	
2680	26.790	-738.27014	69.33122	-623.24445	834.30792	73.78355	-616.41516	-655.05292	-39.25614	509.33820	762.54126	-42.42264	595.11945	44.57750	834.18250	-869.46326	
2681	26.800	-738.78137	69.46629	-623.39172	833.77399	73.88051	-616.44958	-655.54401	-39.32678	509.39413	761.73840	-42.58088	595.11670	44.18030	834.37512	-869.07813	
2682	26.810	-739.40723	69.58966	-623.23956	833.27618	74.10545	-616.48175	-655.99780	-39.48246	509.44928	761.18207	-42.65421	595.09619	43.06009	834.48828	-868.90375	
2683	26.820	-740.23669	69.85239	-623.21118	832.71198	74.20506	-616.45526	-656.69678	-39.59340	509.44974	760.64215	-42.54820	595.14496	42.26604	834.61267	-868.58435	
2684	26.830	-740.79968	69.97609	-623.18683	831.75940	74.23547	-616.50964	-657.27930	-39.66341	509.44446	760.18469	-42.60158	595.21033	41.76070	834.84662	-868.39056	
2685	26.840	-741.33618	69.97008	-623.20874	831.13324	74.24037	-616.36359	-657.98224	-39.65097	509.49594	759.49219	-42.72501	595.17523	41.32115	834.86426	-868.46826	
